# xmcd CD database file
#
# Track frame offsets:
#	150
#	9546
#	21722
#	31921
#	45918
#	57603
#	71273
#	84580
#	98101
#	110288
#	124929
#	133997
#	146341
#	160953
#	173390
#
# Disc length: 2504 seconds
#
# Revision: 1
# Processed by: cddbd v1.5.2PL0 Copyright (c) Steve Scherf et al.
# Submitted via: CDex 1.51
#
DISCID=c509c60f
DTITLE=Various Artist - STTW-1265
DYEAR=1900
DGENRE=Blues
TTITLE0=Jerry Lee Lewis - Great Balls Of Fire
TTITLE1=Little Richard - Tutti Frutti
TTITLE2=Eddie Cochran - Somethin' Else
TTITLE3=Martha Reeves And The Vandellas - Heatwave
TTITLE4=Beatles The - If I Fell In Love With You
TTITLE5=Everly Brothers The - Let It Be Me
TTITLE6=Helen Shapiro - Walkin' Back To Happiness
TTITLE7=Sam Cooke - Cupid
TTITLE8=Bruce Channel - Hey Baby
TTITLE9=Gene Pitney - Twenty Four Hours From Tulsa
TTITLE10=Swinging Blue Jeans The - Hippy Hippy Shake
TTITLE11=Crystals The - Da Doo Ron Ron
TTITLE12=Chuck Berry - You Never Can Tell
TTITLE13=Gerry And The Pacemakers - Ferry Cross The Mersey
TTITLE14=Roy Orbison - Oh Pretty Woman
EXTD=
EXTT0=
EXTT1=
EXTT2=
EXTT3=
EXTT4=
EXTT5=
EXTT6=
EXTT7=
EXTT8=
EXTT9=
EXTT10=
EXTT11=
EXTT12=
EXTT13=
EXTT14=
PLAYORDER=
